<mxfile host="app.diagrams.net" modified="2023-06-02T19:30:37.019Z" agent="Mozilla/5.0 (Windows NT 10.0; Win64; x64) AppleWebKit/537.36 (KHTML, like Gecko) Chrome/114.0.0.0 Safari/537.36" version="21.3.7" etag="Mpr-mtBH4jXUISmVc3lB" type="github">
  <diagram name="Page-1" id="RbowTx63xH83jGibhQiN">
    <mxGraphModel>
      <root>
        <mxCell id="0" />
        <mxCell id="1" parent="0" />
      </root>
    </mxGraphModel>
  </diagram>
</mxfile>
